# xmcd CD database file
#
# Track frame offsets:
#	150
#	16542
#	33440
#	52360
#	69832
#	92985
#	114682
#	139665
#	157797
#
# Disc length: 2450 seconds
#
# Revision: 0
# Processed by: cddbd v1.5.1PL0 Copyright (c) Steve Scherf et al.
# Submitted via: CDex 1.51
#
DISCID=6e099009
DTITLE=5X - Carmen Maki's 5X
DYEAR=1983
DGENRE=Hard Rock
TTITLE0=Fantasy
TTITLE1=Sunny
TTITLE2=Be My Sun
TTITLE3=First Time
TTITLE4=Love Is Fading
TTITLE5=Gunner
TTITLE6=Fever
TTITLE7=Higher and Stronger
TTITLE8=Love Confession
EXTD=YEAR: 1983
EXTT0=
EXTT1=
EXTT2=
EXTT3=
EXTT4=
EXTT5=
EXTT6=
EXTT7=
EXTT8=
PLAYORDER=
